<svg width="776" height="470" viewBox="0 0 776 470" fill="none" xmlns="http://www.w3.org/2000/svg">
<g clip-path="url(#clip0_1_161)">
<path d="M63.15 263.04H91.59L154.74 407.59H133.46C131.295 407.599 129.138 407.313 127.05 406.74C125.038 406.182 123.117 405.333 121.35 404.22C119.595 403.109 118 401.763 116.61 400.22C115.182 398.617 114.024 396.794 113.18 394.82L106.12 378.82H48.62L41.76 394.82C40.9277 396.683 39.7847 398.39 38.38 399.87C36.9253 401.427 35.2827 402.798 33.49 403.95C31.6762 405.127 29.7073 406.046 27.64 406.68C25.6151 407.325 23.505 407.662 21.38 407.68H-0.039978L63.15 263.04ZM61.84 348.78H92.7L80.09 318.51C79.5369 317.231 79.066 315.919 78.68 314.58C78.34 313.37 78.08 312.29 77.88 311.35C77.6253 310.366 77.4547 309.363 77.37 308.35C77.23 309.3 77.03 310.35 76.77 311.48C76.56 312.42 76.28 313.48 75.91 314.71C75.54 315.94 75.08 317.2 74.55 318.54L61.84 348.78Z M234.53 321.75V352.62H181.57V407.6H148.59V263.05H244.82V293.91H181.57V321.75H234.53Z M286.48 263.04H253.39V407.59H286.48V263.04Z M348.21 294.72C346.503 294.716 344.8 294.867 343.12 295.17C341.591 295.432 340.111 295.924 338.73 296.63C337.536 297.242 336.486 298.101 335.65 299.15C334.867 300.196 334.458 301.474 334.49 302.78C334.379 304.607 334.957 306.409 336.11 307.83C337.471 309.237 339.127 310.323 340.96 311.01C343.629 312.073 346.357 312.981 349.13 313.73C352.39 314.643 356.207 315.837 360.58 317.31C365.9 319.074 371.022 321.39 375.86 324.22C380.269 326.783 384.253 330.014 387.67 333.8C393.147 340.178 396.626 348.026 397.675 356.368C398.724 364.709 397.297 373.174 393.57 380.71C390.673 386.461 386.638 391.564 381.71 395.71C376.642 399.954 370.854 403.253 364.62 405.45C358.179 407.766 351.384 408.943 344.54 408.93C338.806 408.957 333.104 408.07 327.65 406.3C322.418 404.596 317.468 402.126 312.96 398.97C308.497 395.855 304.535 392.078 301.21 387.77C297.868 383.483 295.212 378.703 293.34 373.6L303.83 367.51C305.54 366.556 307.351 365.794 309.23 365.24C311.111 364.672 313.065 364.383 315.03 364.38C317.743 364.34 320.424 364.965 322.84 366.2C325.16 367.413 327.43 368.723 329.65 370.13C331.87 371.537 334.157 372.847 336.51 374.06C339.015 375.305 341.783 375.929 344.58 375.88C346.817 375.836 349.04 375.5 351.19 374.88C353.526 374.264 355.767 373.332 357.85 372.11C359.827 370.965 361.557 369.438 362.94 367.62C364.282 365.832 364.986 363.645 364.94 361.41C365.022 359.426 364.355 357.484 363.07 355.97C361.658 354.428 359.96 353.175 358.07 352.28C355.708 351.143 353.264 350.184 350.76 349.41C348 348.54 345.11 347.49 342.08 346.28C337.1 344.4 332.19 342.35 327.35 340.13C322.659 338.002 318.284 335.236 314.35 331.91C310.482 328.601 307.311 324.556 305.02 320.01C302.633 315.343 301.44 309.54 301.44 302.6C301.333 296.56 302.706 290.587 305.44 285.2C308.022 280.256 311.605 275.904 315.96 272.42C320.441 268.878 325.522 266.168 330.96 264.42C336.542 262.578 342.382 261.643 348.26 261.65C352.54 261.644 356.79 262.378 360.82 263.82C364.873 265.255 368.749 267.151 372.37 269.47C376 271.791 379.411 274.438 382.56 277.38C385.608 280.223 388.474 283.256 391.14 286.46L380.95 295.04C379.11 296.683 376.967 297.951 374.64 298.77C372.281 299.538 369.811 299.913 367.33 299.88C365.415 299.915 363.508 299.642 361.68 299.07C360.136 298.565 358.621 297.978 357.14 297.31C355.733 296.643 354.32 296.053 352.9 295.54C351.414 294.995 349.842 294.724 348.26 294.74 M427.4 335.27C427.37 340.708 428.505 346.088 430.73 351.05C435.055 360.834 442.958 368.594 452.82 372.74C457.829 374.866 463.219 375.948 468.66 375.92C472.793 375.937 476.9 375.261 480.81 373.92C484.573 372.631 488.151 370.852 491.45 368.63C495.02 366.209 499.247 364.942 503.56 365C506.643 364.916 509.709 365.482 512.56 366.66C515.119 367.826 517.444 369.449 519.42 371.45L527.99 380.03C523.906 384.387 519.472 388.4 514.73 392.03C510.184 395.509 505.319 398.549 500.2 401.11C495.259 403.571 490.07 405.499 484.72 406.86C479.49 408.184 474.115 408.856 468.72 408.86C462.047 408.903 455.399 408.035 448.96 406.28C442.747 404.582 436.778 402.091 431.2 398.87C414.51 389.225 402.257 373.432 397.06 354.87C393.487 342.034 393.487 328.466 397.06 315.63C398.788 309.459 401.312 303.539 404.57 298.02C407.793 292.591 411.691 287.591 416.17 283.14C420.657 278.683 425.698 274.821 431.17 271.65C436.758 268.43 442.737 265.943 448.96 264.25C455.368 262.489 461.985 261.608 468.63 261.63C474.026 261.629 479.4 262.301 484.63 263.63C489.981 264.987 495.171 266.915 500.11 269.38C505.258 271.949 510.147 275.006 514.71 278.51C519.448 282.14 523.879 286.154 527.96 290.51L519.39 299.08C517.373 301.096 514.999 302.72 512.39 303.87C509.59 305.085 506.562 305.688 503.51 305.64C499.186 305.673 494.956 304.371 491.4 301.91C488.101 299.629 484.504 297.812 480.71 296.51C476.84 295.225 472.787 294.58 468.71 294.6C463.264 294.569 457.871 295.665 452.87 297.82C448.001 299.901 443.557 302.86 439.76 306.55C435.964 310.24 432.91 314.622 430.76 319.46C428.535 324.425 427.4 329.809 427.43 335.25 M575.89 263.04H604.33L667.48 407.59H646.19C644.028 407.599 641.875 407.313 639.79 406.74C637.778 406.182 635.857 405.333 634.09 404.22C632.335 403.109 630.74 401.763 629.35 400.22C627.922 398.617 626.764 396.794 625.92 394.82L618.86 378.82H561.36L554.5 394.82C553.665 396.681 552.522 398.388 551.12 399.87C549.661 401.423 548.019 402.793 546.23 403.95C544.416 405.127 542.447 406.046 540.38 406.68C538.355 407.325 536.245 407.662 534.12 407.68H512.74L575.89 263.04ZM574.57 348.78H605.44L592.83 318.51C592.277 317.231 591.806 315.919 591.42 314.58C591.08 313.37 590.81 312.29 590.61 311.35C590.354 310.367 590.186 309.363 590.11 308.35C589.97 309.3 589.77 310.35 589.5 311.48C589.3 312.42 589.02 313.48 588.65 314.71C588.28 315.94 587.82 317.2 587.28 318.54L574.57 348.78Z M687.25 407.59H661.25V263.04H725.25C731.189 263.007 737.073 264.174 742.55 266.47C747.827 268.666 752.637 271.85 756.72 275.85C760.779 279.853 764.019 284.608 766.26 289.85C768.59 295.248 769.775 301.071 769.74 306.95C769.671 309.169 769.335 311.371 768.74 313.51C768.103 316.065 767.205 318.549 766.06 320.92C764.976 323.228 763.568 325.369 761.88 327.28C760.442 328.999 758.471 330.189 756.28 330.66C759.207 331.041 761.941 332.327 764.1 334.34C766.592 336.598 768.688 339.258 770.3 342.21C772.083 345.411 773.473 348.816 774.44 352.35C775.413 355.719 775.925 359.204 775.96 362.71C776.001 368.745 774.781 374.723 772.38 380.26C768.835 388.398 762.98 395.318 755.542 400.161C748.103 405.005 739.407 407.56 730.53 407.51L687.25 407.59ZM694.25 296.03V317.82H726.43C727.809 317.819 729.172 317.526 730.43 316.96C731.679 316.408 732.81 315.621 733.76 314.64C734.706 313.648 735.453 312.483 735.96 311.21C736.503 309.88 736.779 308.456 736.77 307.02C736.776 304.146 735.706 301.374 733.77 299.25C732.827 298.248 731.695 297.443 730.44 296.88C729.182 296.317 727.818 296.027 726.44 296.03H694.25ZM731.78 374.61C733.28 374.608 734.761 374.266 736.11 373.61C737.45 372.981 738.65 372.09 739.64 370.99C740.664 369.858 741.486 368.56 742.07 367.15C742.673 365.695 742.979 364.135 742.97 362.56C742.982 361.009 742.693 359.471 742.12 358.03C741.57 356.662 740.766 355.41 739.75 354.34C738.731 353.294 737.532 352.44 736.21 351.82C734.861 351.164 733.38 350.822 731.88 350.82H694.21V374.61H731.78Z" fill="#264093" />

<path d="M5.87003 425.38H13.55L19.42 461.45H13.76L12.76 454.29V454.39H6.31003L5.31003 461.45H-0.039978L5.87003 425.38ZM12.06 449.51L9.53003 431.68H9.43002L6.96002 449.51H12.06Z M23.13 459.62C21.7234 458.06 21.02 455.82 21.02 452.9V450.84H26.38V453.31C26.38 455.643 27.36 456.81 29.32 456.81C29.7252 456.839 30.1317 456.778 30.5103 456.631C30.889 456.484 31.2304 456.255 31.51 455.96C32.0733 455.159 32.3354 454.185 32.25 453.21C32.2896 451.81 31.9436 450.427 31.25 449.21C30.189 447.648 28.9055 446.25 27.44 445.06C25.514 443.479 23.8589 441.594 22.54 439.48C21.6005 437.747 21.1218 435.801 21.15 433.83C20.9967 431.427 21.7737 429.056 23.32 427.21C24.14 426.396 25.1244 425.765 26.2074 425.362C27.2903 424.958 28.447 424.791 29.6 424.87C32.32 424.87 34.3734 425.65 35.76 427.21C37.1467 428.77 37.8434 431.013 37.85 433.94V435.43H32.46V433.58C32.5409 432.621 32.2864 431.663 31.74 430.87C31.4737 430.577 31.1447 430.349 30.7775 430.202C30.4104 430.055 30.0146 429.992 29.62 430.02C27.7334 430.02 26.79 431.17 26.79 433.47C26.7845 434.767 27.1525 436.037 27.85 437.13C28.9258 438.68 30.219 440.068 31.69 441.25C33.6395 442.819 35.2952 444.722 36.58 446.87C37.5067 448.703 37.9669 450.737 37.92 452.79C37.92 455.75 37.19 458.02 35.73 459.6C34.8994 460.425 33.9024 461.062 32.8057 461.471C31.709 461.88 30.5377 462.05 29.37 461.97C26.62 461.97 24.54 461.18 23.13 459.62Z M42.3 459.62C40.8933 458.06 40.19 455.82 40.19 452.9V450.84H45.55V453.31C45.55 455.64 46.55 456.81 48.48 456.81C48.8852 456.839 49.2917 456.778 49.6703 456.631C50.049 456.484 50.3904 456.255 50.67 455.96C51.2417 455.163 51.5079 454.187 51.42 453.21C51.4596 451.81 51.1136 450.426 50.42 449.21C49.359 447.648 48.0755 446.25 46.61 445.06C44.684 443.479 43.0289 441.594 41.71 439.48C40.7658 437.749 40.2868 435.802 40.32 433.83C40.1691 431.429 40.9418 429.06 42.48 427.21C43.3026 426.396 44.2889 425.767 45.3733 425.363C46.4578 424.96 47.6156 424.792 48.77 424.87C51.48 424.87 53.54 425.65 54.93 427.21C56.32 428.77 57.01 431.02 57.01 433.94V435.43H51.66V433.58C51.7379 432.619 51.4799 431.661 50.93 430.87C50.6657 430.578 50.3384 430.349 49.9729 430.202C49.6074 430.055 49.2131 429.993 48.82 430.02C46.9267 430.02 45.9833 431.17 45.99 433.47C45.9854 434.765 46.3496 436.034 47.04 437.13C48.1216 438.676 49.4142 440.062 50.88 441.25C52.8293 442.822 54.4878 444.725 55.78 446.87C56.7067 448.703 57.1669 450.737 57.12 452.79C57.12 455.75 56.39 458.02 54.93 459.6C54.0979 460.425 53.0992 461.064 52.0007 461.472C50.9023 461.881 49.7293 462.051 48.56 461.97C47.4137 462.049 46.2639 461.879 45.1889 461.474C44.1139 461.068 43.1388 460.436 42.33 459.62 M62.14 459.6C60.5615 457.738 59.7659 455.336 59.92 452.9V433.9C59.7637 431.463 60.5597 429.061 62.14 427.2C63.9163 425.672 66.1818 424.831 68.525 424.831C70.8682 424.831 73.1337 425.672 74.91 427.2C76.4904 429.061 77.2863 431.463 77.13 433.9V452.9C77.2842 455.336 76.4885 457.738 74.91 459.6C73.1337 461.128 70.8682 461.969 68.525 461.969C66.1818 461.969 63.9163 461.128 62.14 459.6ZM71.46 453.26V433.58C71.46 431.213 70.48 430.027 68.52 430.02C66.56 430.013 65.5834 431.2 65.59 433.58V453.26C65.59 455.633 66.5667 456.817 68.52 456.81C70.4734 456.803 71.4534 455.62 71.46 453.26Z M82.72 459.65C81.1943 457.821 80.4283 455.477 80.58 453.1V433.73C80.4278 431.356 81.194 429.015 82.72 427.19C84.4428 425.694 86.648 424.87 88.93 424.87C91.2119 424.87 93.4172 425.694 95.14 427.19C96.6587 429.018 97.4208 431.358 97.27 433.73V437.51H91.96V433.34C91.96 431.107 91.0133 429.99 89.12 429.99C87.2267 429.99 86.2833 431.107 86.29 433.34V453.51C86.29 455.703 87.2333 456.8 89.12 456.8C91.0067 456.8 91.9533 455.703 91.96 453.51V447.99H97.31V453.09C97.4603 455.465 96.6985 457.808 95.18 459.64C93.4572 461.136 91.2519 461.96 88.97 461.96C86.688 461.96 84.4828 461.136 82.76 459.64 M106.34 425.39H100.67V461.46H106.34V425.39Z M114.96 425.38H122.63L128.51 461.45H122.84L121.84 454.29V454.39H115.36L114.36 461.45H109.1L114.96 425.38ZM121.13 449.51L118.6 431.68H118.5L116.03 449.51H121.13Z M132.9 459.65C131.378 457.819 130.612 455.476 130.76 453.1V433.73C130.613 431.357 131.379 429.017 132.9 427.19C134.623 425.694 136.828 424.87 139.11 424.87C141.392 424.87 143.597 425.694 145.32 427.19C146.841 429.017 147.607 431.357 147.46 433.73V437.51H142.1V433.34C142.1 431.107 141.153 429.99 139.26 429.99C137.367 429.99 136.423 431.107 136.43 433.34V453.51C136.43 455.703 137.373 456.8 139.26 456.8C141.147 456.8 142.093 455.703 142.1 453.51V447.99H147.46V453.09C147.608 455.466 146.842 457.809 145.32 459.64C143.597 461.136 141.392 461.96 139.11 461.96C136.828 461.96 134.623 461.136 132.9 459.64M135.09 468.34C134.671 468.126 134.324 467.792 134.094 467.381C133.865 466.97 133.762 466.5 133.8 466.03V465.51H137.62V465.92C137.61 466.067 137.635 466.214 137.692 466.349C137.749 466.485 137.838 466.605 137.95 466.7C138.181 466.871 138.463 466.96 138.75 466.95C139.106 466.978 139.46 466.879 139.75 466.67C139.865 466.542 139.952 466.392 140.006 466.228C140.059 466.064 140.078 465.891 140.06 465.72C140.073 465.527 140.036 465.334 139.954 465.159C139.872 464.984 139.747 464.833 139.59 464.72C139.15 464.48 138.65 464.372 138.15 464.41H137.96V460.75H140.49V463.51C141.409 463.452 142.326 463.65 143.14 464.08C143.444 464.278 143.688 464.555 143.846 464.88C144.005 465.206 144.072 465.569 144.04 465.93C144.102 466.431 144.014 466.94 143.786 467.39C143.558 467.841 143.201 468.213 142.76 468.46C141.484 468.941 140.121 469.149 138.76 469.07C137.504 469.137 136.25 468.908 135.1 468.4 M155.24 425.38H162.96L168.84 461.45H163.17L162.17 454.29V454.39H155.73L154.73 461.45H149.36L155.24 425.38ZM151.96 421.51C152.441 420.291 153.158 419.18 154.07 418.24C154.757 417.561 155.684 417.18 156.65 417.18C157.201 417.17 157.75 417.258 158.27 417.44C158.781 417.635 159.273 417.876 159.74 418.16C160.05 418.33 160.35 418.49 160.64 418.62C160.904 418.754 161.194 418.826 161.49 418.83C161.692 418.831 161.892 418.791 162.078 418.712C162.263 418.633 162.431 418.516 162.57 418.37C162.985 417.911 163.323 417.388 163.57 416.82L166.26 418.51C165.779 419.729 165.062 420.84 164.15 421.78C163.463 422.459 162.536 422.84 161.57 422.84C161.018 422.825 160.473 422.714 159.96 422.51C159.449 422.315 158.957 422.074 158.49 421.79C158.18 421.62 157.88 421.46 157.59 421.32C157.324 421.195 157.034 421.126 156.74 421.12C156.538 421.119 156.338 421.159 156.152 421.238C155.967 421.317 155.799 421.434 155.66 421.58C155.245 422.039 154.907 422.562 154.66 423.13L151.96 421.51ZM161.44 449.51L158.91 431.68H158.81L156.32 449.51H161.44Z M173.22 459.6C171.642 457.738 170.846 455.336 171 452.9V433.9C170.844 431.463 171.64 429.061 173.22 427.2C174.996 425.672 177.262 424.831 179.605 424.831C181.948 424.831 184.214 425.672 185.99 427.2C187.57 429.061 188.366 431.463 188.21 433.9V452.9C188.364 455.336 187.569 457.738 185.99 459.6C184.214 461.128 181.948 461.969 179.605 461.969C177.262 461.969 174.996 461.128 173.22 459.6ZM182.54 453.26V433.58C182.54 431.213 181.56 430.027 179.6 430.02C177.64 430.013 176.663 431.2 176.67 433.58V453.26C176.67 455.633 177.647 456.817 179.6 456.81C181.553 456.803 182.533 455.62 182.54 453.26Z M200.27 425.38H208.96C211.78 425.38 213.893 426.137 215.3 427.65C216.707 429.163 217.41 431.38 217.41 434.3V452.51C217.41 455.43 216.707 457.643 215.3 459.15C213.893 460.657 211.78 461.423 208.96 461.45H200.31L200.27 425.38ZM208.82 456.3C209.213 456.33 209.607 456.275 209.976 456.138C210.345 456.002 210.681 455.788 210.96 455.51C211.519 454.734 211.782 453.783 211.7 452.83V434.04C211.782 433.087 211.519 432.136 210.96 431.36C210.684 431.077 210.349 430.857 209.98 430.716C209.61 430.574 209.215 430.514 208.82 430.54H205.96V456.3H208.82Z M222.96 459.6C221.382 457.738 220.586 455.336 220.74 452.9V433.9C220.584 431.463 221.38 429.061 222.96 427.2C224.736 425.672 227.002 424.831 229.345 424.831C231.688 424.831 233.954 425.672 235.73 427.2C237.31 429.061 238.106 431.463 237.95 433.9V452.9C238.104 455.336 237.309 457.738 235.73 459.6C233.954 461.128 231.688 461.969 229.345 461.969C227.002 461.969 224.736 461.128 222.96 459.6ZM232.28 453.26V433.58C232.28 431.213 231.303 430.027 229.35 430.02C227.397 430.013 226.417 431.2 226.41 433.58V453.26C226.41 455.633 227.39 456.817 229.35 456.81C231.31 456.803 232.287 455.62 232.28 453.26Z M242.96 459.62C241.547 458.06 240.84 455.82 240.84 452.9V450.84H246.2V453.31C246.2 455.643 247.18 456.81 249.14 456.81C249.545 456.839 249.952 456.778 250.33 456.631C250.709 456.484 251.05 456.255 251.33 455.96C251.902 455.163 252.168 454.187 252.08 453.21C252.12 451.81 251.774 450.427 251.08 449.21C250.025 447.644 248.741 446.245 247.27 445.06C245.347 443.479 243.695 441.594 242.38 439.48C241.436 437.749 240.957 435.802 240.99 433.83C240.839 431.429 241.612 429.06 243.15 427.21C243.972 426.395 244.958 425.765 246.043 425.362C247.127 424.958 248.286 424.79 249.44 424.87C252.147 424.87 254.197 425.65 255.59 427.21C256.983 428.77 257.68 431.013 257.68 433.94V435.43H252.32V433.58C252.401 432.621 252.146 431.663 251.6 430.87C251.335 430.578 251.008 430.35 250.642 430.203C250.277 430.056 249.883 429.993 249.49 430.02C247.603 430.02 246.657 431.17 246.65 433.47C246.649 434.766 247.017 436.035 247.71 437.13C248.786 438.68 250.079 440.068 251.55 441.25C253.5 442.819 255.155 444.722 256.44 446.87C257.371 448.701 257.832 450.736 257.78 452.79C257.78 455.75 257.05 458.02 255.59 459.6C254.759 460.425 253.762 461.063 252.666 461.471C251.569 461.88 250.398 462.05 249.23 461.97C246.48 461.97 244.4 461.18 243 459.62 M269.2 425.39H284.19V430.54H274.87V440.59H282.19V445.74H274.87V461.45H269.2V425.39Z M292.59 425.39H286.92V461.46H292.59V425.39Z M297.96 459.62C296.547 458.06 295.843 455.82 295.85 452.9V450.84H301.21V453.31C301.21 455.643 302.187 456.81 304.14 456.81C304.545 456.839 304.952 456.778 305.33 456.631C305.709 456.484 306.05 456.255 306.33 455.96C306.902 455.163 307.168 454.187 307.08 453.21C307.12 451.81 306.774 450.426 306.08 449.21C305.019 447.648 303.735 446.25 302.27 445.06C300.344 443.479 298.689 441.594 297.37 439.48C296.426 437.749 295.947 435.802 295.98 433.83C295.829 431.429 296.602 429.06 298.14 427.21C298.963 426.396 299.949 425.767 301.033 425.363C302.118 424.96 303.276 424.792 304.43 424.87C307.14 424.87 309.2 425.65 310.59 427.21C311.98 428.77 312.67 431.02 312.67 433.94V435.43H307.32V433.58C307.403 432.619 307.145 431.659 306.59 430.87C306.326 430.578 305.998 430.349 305.633 430.202C305.267 430.055 304.873 429.993 304.48 430.02C302.587 430.02 301.643 431.17 301.65 433.47C301.645 434.765 302.01 436.034 302.7 437.13C303.782 438.676 305.074 440.062 306.54 441.25C308.489 442.822 310.148 444.725 311.44 446.87C312.367 448.703 312.827 450.737 312.78 452.79C312.78 455.75 312.05 458.02 310.59 459.6C309.758 460.425 308.759 461.064 307.661 461.472C306.562 461.881 305.389 462.051 304.22 461.97C303.074 462.049 301.924 461.879 300.849 461.474C299.774 461.068 298.799 460.436 297.99 459.62 M317.76 459.65C316.234 457.821 315.468 455.477 315.62 453.1V433.73C315.468 431.356 316.234 429.015 317.76 427.19C319.483 425.694 321.688 424.87 323.97 424.87C326.252 424.87 328.457 425.694 330.18 427.19C331.701 429.017 332.467 431.357 332.32 433.73V437.51H326.96V433.34C326.96 431.107 326.013 429.99 324.12 429.99C322.24 429.99 321.29 431.11 321.29 433.34V453.51C321.29 455.7 322.24 456.8 324.12 456.8C326 456.8 326.96 455.71 326.96 453.51V447.99H332.32V453.09C332.468 455.466 331.702 457.809 330.18 459.64C328.457 461.136 326.252 461.96 323.97 461.96C321.688 461.96 319.483 461.136 317.76 459.64 M340.1 425.38H347.77L353.65 461.45H347.96L346.96 454.29V454.39H340.52L339.52 461.45H334.26L340.1 425.38ZM346.28 449.51L343.75 431.68H343.65L341.18 449.51H346.28Z M362.05 425.39H356.38V461.46H362.05V425.39Z M367.4 459.62C365.987 458.06 365.283 455.82 365.29 452.9V450.84H370.65V453.31C370.65 455.643 371.627 456.81 373.58 456.81C373.987 456.84 374.395 456.779 374.775 456.632C375.156 456.485 375.499 456.255 375.78 455.96C376.343 455.159 376.605 454.185 376.52 453.21C376.56 451.81 376.214 450.427 375.52 449.21C374.459 447.648 373.175 446.25 371.71 445.06C369.784 443.479 368.129 441.594 366.81 439.48C365.87 437.747 365.392 435.801 365.42 433.83C365.267 431.427 366.044 429.056 367.59 427.21C368.41 426.396 369.394 425.765 370.477 425.362C371.56 424.958 372.717 424.791 373.87 424.87C376.59 424.87 378.643 425.65 380.03 427.21C381.417 428.77 382.113 431.013 382.12 433.94V435.43H376.76V433.58C376.841 432.621 376.586 431.663 376.04 430.87C375.774 430.577 375.445 430.349 375.077 430.202C374.71 430.055 374.315 429.992 373.92 430.02C372.033 430.02 371.09 431.17 371.09 433.47C371.084 434.767 371.452 436.037 372.15 437.13C373.224 438.678 374.514 440.066 375.98 441.25C377.932 442.82 379.591 444.722 380.88 446.87C381.807 448.703 382.267 450.737 382.22 452.79C382.22 455.75 381.49 458.02 380.03 459.6C379.199 460.425 378.202 461.062 377.106 461.471C376.009 461.88 374.838 462.05 373.67 461.97C370.92 461.97 368.84 461.18 367.43 459.62 M393.68 425.38H402.33C405.15 425.38 407.263 426.137 408.67 427.65C410.077 429.163 410.78 431.38 410.78 434.3V452.51C410.78 455.43 410.077 457.643 408.67 459.15C407.263 460.657 405.15 461.413 402.33 461.42H393.68V425.38ZM402.23 456.3C402.626 456.325 403.022 456.263 403.391 456.12C403.761 455.977 404.094 455.755 404.37 455.47C404.939 454.698 405.206 453.745 405.12 452.79V434.04C405.206 433.085 404.939 432.132 404.37 431.36C404.094 431.077 403.759 430.857 403.39 430.716C403.02 430.574 402.625 430.514 402.23 430.54H399.35V456.3H402.23Z M414.6 425.39H430.05V430.54H420.26V440.07H428.04V445.23H420.26V456.3H430.05V461.45H414.6V425.39Z M445.96 425.38H453.64L459.51 461.45H453.84L452.84 454.29V454.39H446.4L445.4 461.45H440.15L445.96 425.38ZM452.1 449.51L449.58 431.68H449.48L446.96 449.51H452.1Z M462.2 425.38H470.6C473.52 425.38 475.65 426.047 476.99 427.38C478.33 428.74 478.99 430.82 478.99 433.64V435.86C478.99 439.6 477.753 441.967 475.28 442.96V443.07C475.923 443.244 476.519 443.561 477.023 443.997C477.527 444.434 477.926 444.978 478.19 445.59C478.821 447.213 479.111 448.95 479.04 450.69V457.03C479.03 457.865 479.063 458.699 479.14 459.53C479.212 460.18 479.388 460.815 479.66 461.41H473.89C473.69 460.878 473.552 460.324 473.48 459.76C473.384 458.837 473.347 457.908 473.37 456.98V450.38C473.487 449.173 473.206 447.962 472.57 446.93C472.216 446.568 471.785 446.29 471.309 446.117C470.833 445.944 470.324 445.88 469.82 445.93H467.82V461.39H462.15L462.2 425.38ZM469.96 440.84C470.423 440.876 470.888 440.816 471.326 440.665C471.765 440.513 472.168 440.273 472.51 439.96C473.16 439.129 473.464 438.08 473.36 437.03V434.25C473.445 433.252 473.199 432.254 472.66 431.41C472.388 431.105 472.048 430.867 471.668 430.716C471.288 430.565 470.878 430.505 470.47 430.54H467.9V440.84H469.96Z M482.96 425.39H491.06L494.66 451.2H494.76L498.37 425.39H506.46V461.45H501.1V434.15H501L496.88 461.45H492.14L488.01 434.15H487.91V461.45H482.96V425.39Z M515.06 425.38H522.74L528.61 461.45H522.96L521.96 454.29V454.39H515.52L514.52 461.45H509.27L515.06 425.38ZM521.25 449.51L518.72 431.68H518.62L516.14 449.51H521.25Z M533.02 459.65C531.494 457.821 530.728 455.477 530.88 453.1V433.73C530.728 431.356 531.494 429.015 533.02 427.19C534.743 425.694 536.948 424.87 539.23 424.87C541.512 424.87 543.717 425.694 545.44 427.19C546.959 429.018 547.721 431.358 547.57 433.73V437.51H542.22V433.34C542.22 431.107 541.273 429.99 539.38 429.99C537.487 429.99 536.543 431.107 536.55 433.34V453.51C536.55 455.703 537.493 456.8 539.38 456.8C541.267 456.8 542.213 455.703 542.22 453.51V447.99H547.57V453.09C547.72 455.465 546.959 457.808 545.44 459.64C543.717 461.136 541.512 461.96 539.23 461.96C536.948 461.96 534.743 461.136 533.02 459.64M535.21 468.34C534.791 468.126 534.444 467.792 534.214 467.381C533.985 466.97 533.882 466.5 533.92 466.03V465.51H537.73V465.92C537.72 466.068 537.745 466.216 537.804 466.352C537.864 466.487 537.955 466.607 538.07 466.7C538.301 466.871 538.583 466.96 538.87 466.95C539.226 466.978 539.58 466.879 539.87 466.67C539.983 466.541 540.069 466.39 540.122 466.227C540.176 466.064 540.195 465.891 540.18 465.72C540.193 465.527 540.157 465.334 540.074 465.159C539.992 464.984 539.867 464.833 539.71 464.72C539.27 464.481 538.77 464.373 538.27 464.41H538.01V460.75H540.54V463.51C541.459 463.452 542.376 463.65 543.19 464.08C543.494 464.278 543.738 464.555 543.896 464.88C544.055 465.206 544.122 465.569 544.09 465.93C544.153 466.432 544.063 466.942 543.834 467.393C543.604 467.844 543.244 468.216 542.8 468.46C541.525 468.943 540.162 469.151 538.8 469.07C537.544 469.137 536.29 468.908 535.14 468.4 M555.35 425.38H563.03L568.9 461.45H563.24L562.24 454.29V454.39H555.8L554.8 461.45H549.54L555.35 425.38ZM552.06 421.51C552.537 420.29 553.255 419.177 554.17 418.24C554.508 417.903 554.909 417.636 555.35 417.454C555.791 417.272 556.263 417.179 556.74 417.18C557.294 417.171 557.846 417.259 558.37 417.44C558.881 417.635 559.373 417.876 559.84 418.16C560.132 418.329 560.432 418.483 560.74 418.62C561.004 418.754 561.294 418.826 561.59 418.83C561.792 418.831 561.992 418.791 562.178 418.712C562.363 418.633 562.531 418.516 562.67 418.37C563.085 417.911 563.423 417.388 563.67 416.82L566.4 418.47C565.919 419.689 565.202 420.8 564.29 421.74C563.603 422.419 562.676 422.8 561.71 422.8C561.159 422.81 560.61 422.722 560.09 422.54C559.577 422.349 559.085 422.108 558.62 421.82C558.31 421.65 558.01 421.49 557.72 421.35C557.454 421.225 557.164 421.156 556.87 421.15C556.668 421.147 556.467 421.186 556.281 421.265C556.095 421.344 555.928 421.462 555.79 421.61C555.375 422.069 555.037 422.593 554.79 423.16L552.06 421.51ZM561.54 449.51L559.01 431.68H558.96L556.43 449.51H561.54Z M573.33 459.6C571.759 457.734 570.967 455.335 571.12 452.9V433.9C570.965 431.465 571.757 429.065 573.33 427.2C575.108 425.671 577.375 424.83 579.72 424.83C582.065 424.83 584.332 425.671 586.11 427.2C587.69 429.061 588.486 431.463 588.33 433.9V452.9C588.484 455.336 587.689 457.738 586.11 459.6C584.332 461.129 582.065 461.97 579.72 461.97C577.375 461.97 575.108 461.129 573.33 459.6ZM582.66 453.26V433.58C582.66 431.213 581.68 430.027 579.72 430.02C577.72 430.02 576.79 431.21 576.79 433.58V453.26C576.79 455.63 577.79 456.81 579.72 456.81C581.65 456.81 582.66 455.63 582.66 453.26Z M600.38 425.38H609.04C611.86 425.38 613.973 426.137 615.38 427.65C616.787 429.163 617.49 431.38 617.49 434.3V452.51C617.49 455.43 616.787 457.643 615.38 459.15C613.973 460.657 611.86 461.413 609.04 461.42H600.38V425.38ZM608.96 456.3C609.354 456.324 609.749 456.263 610.116 456.12C610.484 455.976 610.816 455.755 611.09 455.47C611.659 454.698 611.926 453.745 611.84 452.79V434.04C611.926 433.085 611.659 432.132 611.09 431.36C610.819 431.071 610.487 430.845 610.119 430.699C609.751 430.552 609.356 430.487 608.96 430.51H606.07V456.27L608.96 456.3Z M623.1 459.6C621.529 457.734 620.737 455.335 620.89 452.9V433.9C620.735 431.465 621.527 429.065 623.1 427.2C624.878 425.671 627.145 424.83 629.49 424.83C631.835 424.83 634.102 425.671 635.88 427.2C637.46 429.061 638.256 431.463 638.1 433.9V452.9C638.254 455.336 637.458 457.738 635.88 459.6C634.102 461.129 631.835 461.97 629.49 461.97C627.145 461.97 624.878 461.129 623.1 459.6ZM632.43 453.26V433.58C632.43 431.213 631.45 430.027 629.49 430.02C627.49 430.02 626.56 431.21 626.56 433.58V453.26C626.56 455.63 627.56 456.81 629.49 456.81C631.42 456.81 632.43 455.63 632.43 453.26Z M643.04 459.62C641.64 458.06 640.93 455.82 640.93 452.9V450.84H646.29V453.31C646.29 455.643 647.27 456.81 649.23 456.81C649.635 456.839 650.042 456.778 650.42 456.631C650.799 456.484 651.14 456.255 651.42 455.96C651.983 455.159 652.245 454.185 652.16 453.21C652.2 451.81 651.854 450.427 651.16 449.21C650.105 447.644 648.821 446.245 647.35 445.06C645.424 443.482 643.772 441.597 642.46 439.48C641.513 437.749 641.03 435.803 641.06 433.83C640.912 431.427 641.688 429.059 643.23 427.21C644.05 426.396 645.035 425.766 646.118 425.363C647.201 424.959 648.357 424.791 649.51 424.87C652.23 424.87 654.283 425.65 655.67 427.21C657.057 428.77 657.753 431.013 657.76 433.94V435.43H652.4V433.58C652.481 432.621 652.226 431.663 651.68 430.87C651.415 430.578 651.088 430.35 650.722 430.203C650.357 430.056 649.963 429.993 649.57 430.02C647.683 430.02 646.737 431.17 646.73 433.47C646.725 434.767 647.093 436.037 647.79 437.13C648.866 438.68 650.159 440.068 651.63 441.25C653.58 442.819 655.235 444.722 656.52 446.87C657.447 448.703 657.907 450.737 657.86 452.79C657.86 455.75 657.13 458.02 655.67 459.6C654.839 460.425 653.842 461.063 652.746 461.471C651.649 461.88 650.478 462.05 649.31 461.97C646.56 461.97 644.48 461.18 643.07 459.62 M643.04 459.62C641.64 458.06 640.93 455.82 640.93 452.9V450.84H646.29V453.31C646.29 455.643 647.27 456.81 649.23 456.81C649.635 456.839 650.042 456.778 650.42 456.631C650.799 456.484 651.14 456.255 651.42 455.96C651.983 455.159 652.245 454.185 652.16 453.21C652.2 451.81 651.854 450.427 651.16 449.21C650.105 447.644 648.821 446.245 647.35 445.06C645.424 443.482 643.772 441.597 642.46 439.48C641.513 437.749 641.03 435.803 641.06 433.83C640.912 431.427 641.688 429.059 643.23 427.21C644.05 426.396 645.035 425.766 646.118 425.363C647.201 424.959 648.357 424.791 649.51 424.87C652.23 424.87 654.283 425.65 655.67 427.21C657.057 428.77 657.753 431.013 657.76 433.94V435.43H652.4V433.58C652.481 432.621 652.226 431.663 651.68 430.87C651.415 430.578 651.088 430.35 650.722 430.203C650.357 430.056 649.963 429.993 649.57 430.02C647.683 430.02 646.737 431.17 646.73 433.47C646.725 434.767 647.093 436.037 647.79 437.13C648.866 438.68 650.159 440.068 651.63 441.25C653.58 442.819 655.235 444.722 656.52 446.87C657.447 448.703 657.907 450.737 657.86 452.79C657.86 455.75 657.13 458.02 655.67 459.6C654.839 460.425 653.842 461.063 652.746 461.471C651.649 461.88 650.478 462.05 649.31 461.97C646.56 461.97 644.48 461.18 643.07 459.62 M669.32 425.38H677.87C680.79 425.38 682.92 426.047 684.26 427.38C685.6 428.74 686.26 430.82 686.26 433.64V435.08C686.321 436.643 686.013 438.199 685.36 439.62C684.778 440.768 683.797 441.665 682.6 442.14V442.24C685.42 443.24 686.83 445.71 686.83 449.77V452.86C686.83 455.64 686.1 457.76 684.64 459.22C683.18 460.68 681.04 461.41 678.22 461.41H669.31L669.32 425.38ZM677.2 440.07C677.663 440.107 678.128 440.049 678.567 439.897C679.006 439.746 679.409 439.505 679.75 439.19C680.4 438.359 680.704 437.31 680.6 436.26V434.26C680.683 433.264 680.441 432.267 679.91 431.42C679.637 431.116 679.297 430.879 678.917 430.728C678.537 430.577 678.127 430.516 677.72 430.55H674.96V440.08L677.2 440.07ZM678.2 456.3C678.606 456.333 679.014 456.279 679.397 456.141C679.78 456.003 680.129 455.784 680.42 455.5C680.981 454.695 681.236 453.716 681.14 452.74V449.6C681.264 448.393 680.964 447.18 680.29 446.17C679.915 445.822 679.471 445.558 678.987 445.394C678.502 445.23 677.989 445.171 677.48 445.22H674.96V456.3H678.2Z M692.09 459.62C690.65 458.06 689.93 455.82 689.93 452.9V425.38H695.6V453.31C695.511 454.264 695.774 455.217 696.34 455.99C696.928 456.518 697.69 456.811 698.48 456.811C699.27 456.811 700.032 456.518 700.62 455.99C701.189 455.218 701.456 454.265 701.37 453.31V425.38H706.83V452.9C706.83 455.82 706.107 458.06 704.66 459.62C702.917 461.135 700.685 461.97 698.375 461.97C696.065 461.97 693.833 461.135 692.09 459.62Z M709.71 456.4L720.22 430.54H710.23V425.39H726.3V430.44L715.79 456.3H726.3V461.45H709.71V456.4Z M735.17 425.39H729.5V461.46H735.17V425.39Z M741.19 459.6C739.619 457.734 738.827 455.335 738.98 452.9V433.9C738.825 431.465 739.617 429.065 741.19 427.2C742.968 425.671 745.235 424.83 747.58 424.83C749.925 424.83 752.192 425.671 753.97 427.2C755.55 429.061 756.346 431.463 756.19 433.9V452.9C756.344 455.336 755.549 457.738 753.97 459.6C752.192 461.129 749.925 461.97 747.58 461.97C745.235 461.97 742.968 461.129 741.19 459.6ZM750.52 453.26V433.58C750.52 431.213 749.54 430.027 747.58 430.02C745.58 430.02 744.65 431.21 744.65 433.58V453.26C744.65 455.63 745.65 456.81 747.58 456.81C749.51 456.81 750.52 455.63 750.52 453.26Z  M761.13 459.62C759.723 458.06 759.02 455.82 759.02 452.9V450.84H764.38V453.31C764.38 455.643 765.36 456.81 767.32 456.81C767.724 456.839 768.129 456.778 768.506 456.631C768.883 456.484 769.223 456.255 769.5 455.96C770.072 455.163 770.338 454.187 770.25 453.21C770.29 451.81 769.944 450.427 769.25 449.21C768.189 447.648 766.905 446.25 765.44 445.06C763.514 443.479 761.859 441.594 760.54 439.48C759.6 437.747 759.122 435.801 759.15 433.83C758.997 431.427 759.774 429.056 761.32 427.21C762.14 426.396 763.124 425.765 764.207 425.362C765.29 424.958 766.447 424.791 767.6 424.87C770.31 424.87 772.37 425.65 773.76 427.21C775.15 428.77 775.85 431.02 775.85 433.94V435.43H770.46V433.58C770.541 432.621 770.286 431.663 769.74 430.87C769.473 430.578 769.144 430.35 768.777 430.203C768.41 430.056 768.015 429.993 767.62 430.02C765.74 430.02 764.79 431.17 764.79 433.47C764.785 434.767 765.153 436.037 765.85 437.13C766.926 438.68 768.219 440.068 769.69 441.25C771.64 442.819 773.295 444.722 774.58 446.87C775.507 448.703 775.967 450.737 775.92 452.79C775.92 455.75 775.19 458.02 773.73 459.6C772.899 460.425 771.902 461.062 770.806 461.471C769.709 461.88 768.538 462.05 767.37 461.97C764.62 461.97 762.54 461.18 761.13 459.62Z" fill="black"/>

<path d="M222.53 33.37C220.555 33.3651 218.598 33.7505 216.772 34.5038C214.946 35.2572 213.287 36.3637 211.89 37.76C209.069 40.5806 207.485 44.4061 207.485 48.395C207.485 52.3839 209.069 56.2094 211.89 59.03C214.711 61.8505 218.536 63.4352 222.525 63.4352C226.514 63.4352 230.339 61.8505 233.16 59.03L233.4 58.81C235.461 56.6878 236.848 54.0037 237.388 51.0951C237.927 48.1864 237.595 45.1832 236.432 42.4631C235.269 39.743 233.328 37.4275 230.853 35.8078C228.377 34.188 225.478 33.3364 222.52 33.36M388.09 138.36H388.5C395.38 138.36 403.11 138.3 407.59 163.95C409.47 174.73 412.12 189.27 415.89 200.33C418.83 208.95 422.01 215.33 424.96 214.33H425.05C429.5 212.2 433.54 199.67 435.58 183.76C437.76 166.84 437.17 146.76 431.93 131.03C431.149 128.661 430.221 126.343 429.15 124.09C421.148 107.675 408.902 93.6988 393.68 83.61C391.847 82.39 389.983 81.2367 388.09 80.15C386.19 81.2367 384.327 82.39 382.5 83.61C367.276 93.6958 355.029 107.673 347.03 124.09C345.955 126.341 345.026 128.659 344.25 131.03C339.01 146.73 338.42 166.84 340.6 183.76C342.6 199.67 346.68 212.2 351.13 214.33H351.22C354.16 215.28 357.35 208.91 360.29 200.33C364.06 189.27 366.71 174.73 368.59 163.95C373.07 138.3 380.8 138.34 387.67 138.36H388.09ZM388.53 148.98H387.63C385 148.98 382.03 148.98 379.1 165.78C377.16 176.88 374.42 191.88 370.38 203.78C365.51 218.06 358.46 228.01 347.86 224.48C347.416 224.331 346.982 224.154 346.56 223.95C338.82 220.24 332.56 204.39 330.07 185.13C327.73 166.87 328.41 145.02 334.18 127.73C335.102 124.931 336.197 122.192 337.46 119.53C346.293 101.379 359.821 85.9216 376.64 74.76L376.81 74.65C366.712 70.4338 355.902 68.1835 344.96 68.02C326.18 67.85 309.03 69.45 293.04 73.95C276.698 78.5199 261.465 86.3882 248.28 97.07L247.83 97.43C249.28 98.17 250.7 98.94 252.08 99.76C265.61 107.76 275.76 119.11 284.95 131.01C294.26 143.06 299.66 154.28 302.8 164.7C305.5 174.005 306.936 183.632 307.07 193.32C307.29 200.2 306.69 206.02 305.07 209.87C304.188 212.371 302.405 214.453 300.07 215.71C298.758 216.339 297.317 216.65 295.862 216.617C294.408 216.584 292.982 216.208 291.7 215.52C288.7 214.11 285.28 211.03 281.38 205.92C278.58 202.25 275.38 197.82 272.2 193.39C263.56 181.39 254.92 169.39 254.88 169.39C254.11 169.78 255.66 178.92 257.18 187.89C257.68 190.89 258.18 193.79 258.58 196.77C259.4 202.85 258.32 209.77 255.82 214.05C254.608 216.308 252.675 218.096 250.33 219.13C248.966 219.68 247.491 219.903 246.026 219.779C244.56 219.656 243.143 219.19 241.89 218.42C238.27 216.42 234.25 211.49 230.22 202.42C218.01 174.96 216.39 153.68 216.38 153.62C216.326 152.922 216.409 152.22 216.626 151.554C216.843 150.889 217.188 150.272 217.643 149.74C218.098 149.208 218.654 148.771 219.278 148.453C219.902 148.136 220.582 147.944 221.28 147.89C221.978 147.835 222.68 147.919 223.346 148.136C224.011 148.352 224.628 148.698 225.16 149.153C225.692 149.608 226.129 150.164 226.447 150.788C226.764 151.412 226.956 152.092 227.01 152.79C227.01 152.84 228.51 172.44 239.93 198.13C242.64 204.24 244.84 207.51 246.56 208.8L246.61 208.72C248 206.32 248.56 202.11 248.04 198.2C247.69 195.66 247.18 192.66 246.68 189.66C244.51 176.89 242.32 163.9 250 159.94C258.18 155.71 269.51 171.45 280.83 187.19C283.83 191.34 286.83 195.5 289.83 199.47C291.398 201.726 293.281 203.746 295.42 205.47C296.3 202.99 296.6 198.85 296.42 193.71C296.3 184.937 295.005 176.219 292.57 167.79C289.77 158.5 284.92 148.44 276.51 137.56C268.1 126.68 258.69 116.04 246.68 108.98C244.03 107.418 241.273 106.044 238.43 104.87C227.14 113.65 216.58 121.37 207.59 127.13C195.04 135.18 184.82 139.71 178.59 138.7C173.94 137.93 169.2 133.39 166.72 127.29C165.316 123.827 164.675 120.103 164.84 116.37C165.026 112.126 166.371 108.013 168.73 104.48C173.41 97.48 182.73 91.53 199.2 89.76C213.74 88.2 225.97 89.53 236.52 92.87L241.61 88.87C255.895 77.2814 272.405 68.7456 290.12 63.79C307.12 59 325.23 57.3 345.01 57.48C359.968 57.6983 374.677 61.3379 388.01 68.12C401.343 61.3379 416.052 57.6983 431.01 57.48C450.78 57.3 468.9 59 485.9 63.79C503.615 68.7456 520.125 77.2814 534.41 88.87L539.5 92.87C550.05 89.52 562.28 88.2 576.82 89.76C593.29 91.53 602.61 97.44 607.29 104.48C609.649 108.013 610.994 112.126 611.18 116.37C611.345 120.103 610.704 123.827 609.3 127.29C606.82 133.39 602.08 137.93 597.43 138.7C591.22 139.7 581 135.18 568.43 127.13C559.43 121.37 548.88 113.65 537.59 104.87C534.747 106.044 531.99 107.418 529.34 108.98C517.34 116.04 508.03 126.54 499.51 137.56C490.99 148.58 486.25 158.5 483.45 167.79C481.01 176.218 479.715 184.936 479.6 193.71C479.44 198.85 479.74 202.99 480.6 205.47C482.738 203.748 484.617 201.727 486.18 199.47C489.18 195.47 492.18 191.34 495.18 187.19C506.5 171.45 517.83 155.71 526.01 159.94C533.69 163.94 531.5 176.89 529.33 189.66C528.82 192.66 528.33 195.66 527.97 198.2C527.44 202.11 527.97 206.32 529.4 208.72V208.8C531.11 207.51 533.31 204.24 536.03 198.13C547.45 172.44 548.94 152.84 548.95 152.79C549.005 152.092 549.196 151.412 549.513 150.788C549.831 150.164 550.268 149.608 550.8 149.153C551.332 148.698 551.949 148.352 552.614 148.136C553.28 147.919 553.982 147.835 554.68 147.89C555.378 147.944 556.058 148.136 556.682 148.453C557.306 148.771 557.862 149.208 558.317 149.74C558.772 150.272 559.117 150.889 559.334 151.554C559.551 152.22 559.635 152.922 559.58 153.62C559.58 153.68 557.95 174.96 545.74 202.42C541.74 211.5 537.74 216.42 534.06 218.42C532.809 219.19 531.394 219.656 529.93 219.779C528.465 219.903 526.993 219.68 525.63 219.13C523.285 218.096 521.352 216.308 520.14 214.05C517.64 209.75 516.56 202.85 517.38 196.77C517.78 193.77 518.28 190.85 518.78 187.89C520.3 178.89 521.84 169.78 521.08 169.39C521.08 169.39 512.4 181.39 503.76 193.39C500.57 197.82 497.38 202.25 494.58 205.92C490.68 211.03 487.24 214.11 484.26 215.52C482.978 216.208 481.552 216.584 480.098 216.617C478.643 216.65 477.202 216.339 475.89 215.71C473.559 214.448 471.777 212.368 470.89 209.87C469.31 206.02 468.71 200.2 468.89 193.32C469.024 183.632 470.46 174.005 473.16 164.7C476.3 154.28 481.7 143.06 491.01 131.01C500.2 119.11 510.35 107.72 523.88 99.76C525.26 98.94 526.68 98.17 528.13 97.43L527.68 97.07C514.495 86.3882 499.262 78.5199 482.92 73.95C466.92 69.45 449.78 67.85 430.99 68.02C420.066 68.1615 409.269 70.388 399.18 74.58L399.35 74.69C416.255 85.8381 429.861 101.316 438.75 119.51C440.009 122.174 441.104 124.913 442.03 127.71C447.8 145 448.48 166.85 446.14 185.11C443.66 204.37 437.39 220.22 429.65 223.93C429.228 224.134 428.794 224.311 428.35 224.46C417.75 227.99 410.7 218.04 405.83 203.76C401.83 191.9 399.05 176.9 397.11 165.76C394.17 148.94 391.21 148.95 388.58 148.96L388.53 148.98ZM201.87 118.12C209.07 113.51 217.22 107.68 225.87 101.12C217.454 99.582 208.855 99.3157 200.36 100.33C187.56 101.71 180.73 105.68 177.64 110.33C176.34 112.265 175.599 114.521 175.5 116.85C175.413 119.046 175.799 121.235 176.63 123.27C177.76 126.04 179.23 127.99 180.33 128.17C183.67 128.72 191.42 124.83 201.84 118.17M550.26 101.17C558.95 107.76 567.1 113.59 574.26 118.17C584.68 124.85 592.44 128.74 595.78 128.17C596.88 127.99 598.35 126.04 599.48 123.27C600.311 121.235 600.697 119.046 600.61 116.85C600.502 114.523 599.762 112.269 598.47 110.33C595.38 105.68 588.55 101.71 575.75 100.33C567.252 99.3159 558.649 99.5822 550.23 101.12M553.61 22.73C558.693 22.7263 563.663 24.2306 567.891 27.0525C572.119 29.8745 575.415 33.8873 577.361 38.583C579.307 43.2787 579.817 48.4464 578.825 53.4318C577.834 58.4173 575.385 62.9965 571.79 66.59C569.404 68.9768 566.572 70.8703 563.454 72.1621C560.336 73.4539 556.995 74.1188 553.62 74.1188C550.245 74.1188 546.904 73.4539 543.786 72.1621C540.668 70.8703 537.836 68.9768 535.45 66.59C533.06 64.2071 531.164 61.376 529.87 58.2589C528.576 55.1418 527.91 51.8 527.91 48.425C527.91 45.05 528.576 41.7081 529.87 38.591C531.164 35.4739 533.06 32.6428 535.45 30.26C535.55 30.15 535.66 30.05 535.77 29.95C540.559 25.3133 546.965 22.7237 553.63 22.73M564.26 37.8C561.475 35.0232 557.716 33.444 553.784 33.3992C549.852 33.3543 546.057 34.8474 543.21 37.56L542.99 37.8C540.169 40.6206 538.585 44.4461 538.585 48.435C538.585 52.4239 540.169 56.2494 542.99 59.07C545.811 61.8906 549.636 63.4751 553.625 63.4751C557.614 63.4751 561.439 61.8906 564.26 59.07C567.074 56.2438 568.654 52.4181 568.654 48.43C568.654 44.4419 567.074 40.6161 564.26 37.79M388.06 0.0199919C393.143 0.0162599 398.113 1.52056 402.341 4.34253C406.569 7.16451 409.865 11.1773 411.811 15.873C413.757 20.5688 414.267 25.7364 413.275 30.7218C412.284 35.7073 409.835 40.2865 406.24 43.88C403.854 46.2668 401.022 48.1603 397.904 49.4521C394.786 50.7439 391.445 51.4088 388.07 51.4088C384.695 51.4088 381.354 50.7439 378.236 49.4521C375.118 48.1603 372.286 46.2668 369.9 43.88C367.511 41.4905 365.618 38.6531 364.328 35.5304C363.038 32.4077 362.376 29.0612 362.382 25.6825C362.388 22.3039 363.06 18.9595 364.36 15.8411C365.661 12.7227 367.564 9.89161 369.96 7.50998L370.29 7.19998C375.074 2.56213 381.477 -0.0279425 388.14 -0.0200167M398.77 15.05C395.989 12.2857 392.24 10.7143 388.319 10.6695C384.398 10.6247 380.614 12.11 377.77 14.81L377.54 15.05C374.719 17.8706 373.135 21.6961 373.135 25.685C373.135 29.6739 374.719 33.4994 377.54 36.32C380.361 39.1406 384.186 40.7251 388.175 40.7251C392.164 40.7251 395.989 39.1406 398.81 36.32C401.631 33.4977 403.216 29.6705 403.216 25.68C403.216 21.6894 401.631 17.8622 398.81 15.04M204.37 30.23C209.197 25.6225 215.626 23.0731 222.299 23.1208C228.972 23.1685 235.364 25.8097 240.125 30.4857C244.885 35.1617 247.64 41.5059 247.807 48.1766C247.974 54.8473 245.54 61.3215 241.02 66.23L240.71 66.56C238.324 68.9468 235.492 70.8403 232.374 72.1321C229.256 73.4239 225.915 74.0888 222.54 74.0888C219.165 74.0888 215.824 73.4239 212.706 72.1321C209.588 70.8403 206.756 68.9468 204.37 66.56C201.983 64.1751 200.09 61.3434 198.799 58.2265C197.507 55.1097 196.842 51.7689 196.842 48.395C196.842 45.0211 197.507 41.6803 198.799 38.5634C200.09 35.4466 201.983 32.6148 204.37 30.23Z M726.28 147.21C726.089 142.967 724.744 138.856 722.39 135.32C717.7 128.32 708.39 122.38 691.91 120.61C677.37 119.05 665.14 120.37 654.6 123.72C652.91 122.39 651.22 121.04 649.51 119.72C635.215 108.113 618.691 99.5598 600.96 94.59C595.403 93.042 589.764 91.8034 584.07 90.88V101.69C588.787 102.507 593.459 103.562 598.07 104.85C614.414 109.416 629.648 117.284 642.83 127.97L643.28 128.33C641.83 129.06 640.41 129.84 639.02 130.65C625.5 138.65 615.35 150 606.15 161.9C596.84 173.95 591.44 185.18 588.3 195.59C585.604 204.9 584.168 214.529 584.03 224.22C583.82 231.09 584.41 236.92 586.03 240.77C586.919 243.267 588.7 245.347 591.03 246.61C592.344 247.24 593.788 247.551 595.244 247.516C596.701 247.481 598.128 247.102 599.41 246.41C602.41 245 605.82 241.93 609.72 236.82C612.52 233.15 615.72 228.72 618.9 224.28C627.54 212.28 636.19 200.28 636.23 200.28C636.99 200.68 635.44 209.81 633.92 218.79C633.42 221.79 632.92 224.68 632.52 227.67C631.7 233.75 632.79 240.67 635.29 244.95C636.502 247.208 638.435 248.996 640.78 250.03C642.143 250.58 643.615 250.803 645.08 250.679C646.544 250.556 647.959 250.09 649.21 249.32C652.83 247.32 656.85 242.39 660.89 233.32C673.09 205.86 674.72 184.59 674.72 184.53C674.775 183.832 674.692 183.13 674.476 182.464C674.26 181.798 673.915 181.181 673.46 180.649C673.006 180.116 672.451 179.678 671.827 179.36C671.203 179.042 670.523 178.85 669.825 178.795C669.127 178.74 668.425 178.823 667.759 179.039C667.093 179.255 666.476 179.6 665.944 180.055C665.411 180.509 664.973 181.064 664.655 181.688C664.337 182.312 664.145 182.992 664.09 183.69C664.09 183.75 662.59 203.34 651.18 229.03C648.46 235.14 646.26 238.42 644.54 239.71V239.63C643.14 237.22 642.54 233.02 643.11 229.11C643.45 226.57 643.96 223.57 644.47 220.56C646.63 207.8 648.83 194.81 641.14 190.84C632.96 186.62 621.64 202.36 610.31 218.09C607.31 222.25 604.31 226.41 601.31 230.38C599.745 232.624 597.862 234.628 595.72 236.33C594.85 233.86 594.54 229.72 594.72 224.57C594.839 215.8 596.134 207.086 598.57 198.66C601.38 189.36 606.23 179.31 614.63 168.43C623.03 157.55 632.46 146.91 644.46 139.84C647.112 138.285 649.869 136.915 652.71 135.74C664.01 144.52 674.56 152.24 683.56 158C696.1 166 706.33 170.58 712.56 169.56C717.21 168.8 721.95 164.26 724.42 158.16C725.829 154.695 726.474 150.967 726.31 147.23M714.54 154.16C713.42 156.92 711.94 158.88 710.85 159.06C707.51 159.6 699.75 155.72 689.33 149.06C682.14 144.45 673.99 138.62 665.33 132.06C673.75 130.526 682.352 130.263 690.85 131.28C703.65 132.65 710.47 136.63 713.57 141.28C714.86 143.216 715.6 145.466 715.71 147.79C715.793 149.99 715.405 152.183 714.57 154.22 M650.48 97.51C652.866 99.8969 655.698 101.79 658.816 103.082C661.934 104.374 665.275 105.039 668.65 105.039C672.025 105.039 675.366 104.374 678.484 103.082C681.602 101.79 684.434 99.8969 686.82 97.51C691.496 92.6975 694.104 86.2461 694.086 79.5358C694.067 72.8254 691.424 66.3886 686.721 61.602C682.018 56.8154 675.629 54.0589 668.919 53.9221C662.21 53.7853 655.714 56.2791 650.82 60.87L650.49 61.17C648.103 63.5557 646.21 66.3883 644.918 69.506C643.626 72.6236 642.961 75.9653 642.961 79.34C642.961 82.7147 643.626 86.0564 644.918 89.174C646.21 92.2917 648.103 95.1243 650.49 97.51H650.48ZM658.01 68.7L658.23 68.46C661.106 65.7844 664.914 64.3384 668.841 64.4306C672.768 64.5227 676.504 66.1456 679.251 68.9531C681.999 71.7605 683.54 75.5304 683.548 79.4586C683.555 83.3868 682.027 87.1624 679.29 89.98C677.893 91.3766 676.235 92.4844 674.411 93.2403C672.586 93.9961 670.63 94.3852 668.655 94.3852C666.68 94.3852 664.724 93.9961 662.899 93.2403C661.075 92.4844 659.417 91.3766 658.02 89.98C656.623 88.5834 655.516 86.9254 654.76 85.1006C654.004 83.2758 653.615 81.3201 653.615 79.345C653.615 77.3699 654.004 75.4141 654.76 73.5894C655.516 71.7646 656.623 70.1066 658.02 68.71 M51.53 158.14C54 164.24 58.74 168.78 63.39 169.54C69.6 170.54 79.82 166.02 92.39 157.98C101.39 152.22 111.94 144.5 123.24 135.72C126.081 136.895 128.838 138.265 131.49 139.82C143.49 146.89 152.8 157.38 161.32 168.41C169.84 179.44 174.57 189.34 177.38 198.64C179.806 207.054 181.094 215.754 181.21 224.51C181.37 229.66 181.06 233.8 180.21 236.27C178.068 234.568 176.185 232.564 174.62 230.32C171.62 226.32 168.62 222.19 165.62 218.03C154.26 202.34 142.96 186.6 134.76 190.82C127.07 194.82 129.27 207.82 131.43 220.54C131.94 223.54 132.43 226.54 132.79 229.09C133.32 233 132.79 237.2 131.36 239.61V239.69C129.64 238.4 127.44 235.12 124.72 229.01C113.31 203.32 111.81 183.73 111.81 183.67C111.755 182.972 111.563 182.292 111.245 181.668C110.927 181.044 110.489 180.489 109.956 180.035C109.424 179.58 108.807 179.235 108.141 179.019C107.475 178.803 106.773 178.72 106.075 178.775C105.377 178.83 104.697 179.022 104.073 179.34C103.449 179.658 102.894 180.096 102.44 180.629C101.985 181.161 101.64 181.778 101.424 182.444C101.208 183.11 101.125 183.812 101.18 184.51C101.18 184.57 102.81 205.84 115.01 233.3C119.01 242.39 123.06 247.3 126.69 249.3C127.941 250.07 129.356 250.536 130.82 250.659C132.285 250.783 133.757 250.56 135.12 250.01C137.465 248.976 139.398 247.188 140.61 244.93C143.11 240.62 144.2 233.73 143.38 227.65C142.97 224.65 142.48 221.72 141.98 218.77C140.46 209.77 138.91 200.66 139.67 200.26C139.67 200.26 148.36 212.26 157 224.26C160.19 228.7 163.38 233.13 166.18 236.8C170.08 241.91 173.51 244.98 176.49 246.39C177.772 247.082 179.2 247.461 180.656 247.496C182.113 247.531 183.557 247.22 184.87 246.59C187.2 245.327 188.981 243.247 189.87 240.75C191.46 236.9 192.05 231.07 191.87 224.2C191.732 214.509 190.296 204.88 187.6 195.57C184.45 185.16 179.06 173.93 169.75 161.88C160.55 149.98 150.4 138.59 136.87 130.63C135.49 129.82 134.07 129.04 132.62 128.31L133.07 127.95C146.253 117.264 161.486 109.396 177.83 104.83C182.441 103.542 187.113 102.487 191.83 101.67V90.88C186.142 91.8042 180.511 93.0427 174.96 94.59C157.247 99.5498 140.738 108.085 126.45 119.67C124.74 121.04 123.05 122.39 121.36 123.67C110.82 120.33 98.59 119.01 84.05 120.57C67.57 122.34 58.26 128.25 53.57 135.28C51.216 138.816 49.8711 142.927 49.68 147.17C49.5165 150.907 50.1611 154.635 51.57 158.1M60.31 147.67C60.4199 145.346 61.1596 143.096 62.45 141.16C65.55 136.51 72.37 132.53 85.17 131.16C93.6679 130.143 102.27 130.406 110.69 131.94C102 138.54 93.85 144.37 86.69 148.94C76.27 155.62 68.51 159.5 65.17 158.94C64.08 158.76 62.6 156.8 61.48 154.04C60.6453 152.003 60.2566 149.81 60.34 147.61 M125.46 97.51C127.847 95.1243 129.74 92.2917 131.032 89.174C132.324 86.0564 132.989 82.7147 132.989 79.34C132.989 75.9653 132.324 72.6236 131.032 69.506C129.74 66.3883 127.847 63.5557 125.46 61.17L125.13 60.87C120.236 56.2791 113.74 53.7853 107.031 53.9221C100.322 54.0589 93.9323 56.8154 89.2293 61.602C84.5264 66.3886 81.8829 72.8254 81.8644 79.5358C81.8458 86.2461 84.4536 92.6975 89.13 97.51C91.5157 99.8969 94.3483 101.79 97.466 103.082C100.584 104.374 103.925 105.039 107.3 105.039C110.675 105.039 114.016 104.374 117.134 103.082C120.252 101.79 123.084 99.8969 125.47 97.51H125.46ZM122.32 79.35C122.341 82.3347 121.472 85.258 119.823 87.7458C118.173 90.2336 115.82 92.1728 113.062 93.3153C110.305 94.4578 107.269 94.7517 104.343 94.1593C101.418 93.5669 98.7358 92.1153 96.64 89.99C93.9029 87.1724 92.3751 83.3968 92.3823 79.4686C92.3895 75.5405 93.9313 71.7706 96.6788 68.9631C99.4263 66.1556 103.162 64.5327 107.089 64.4406C111.016 64.3485 114.824 65.7944 117.7 68.47L117.92 68.71C119.319 70.1043 120.428 71.7611 121.185 73.5853C121.942 75.4094 122.331 77.3651 122.33 79.34" fill="#E40D1A"/>
</g>
</svg>
